<svg width="30" height="29" viewBox="0 0 30 29" fill="none" xmlns="http://www.w3.org/2000/svg">
<path d="M30 19.8346C29.8633 20.5094 28.9258 26.7391 28.7891 28.12C19.5798 27.8502 11.6098 27.8223 0 28.12V26.5194C3.55133 25.9578 4.73648 26.0161 4.76562 24.3069C4.9057 19.7674 5.04094 8.98252 4.76562 4.0956C4.68523 2.30923 3.81797 2.41562 0 1.83596V0.235379C5.77234 0.383386 19.9948 0.772107 28.3593 0C28.0859 2.40087 27.7538 7.94013 27.7538 7.94013H25.9375C25.074 5.25147 24.472 2.25964 21.6602 2.25964H10.957C10.1562 2.25964 10.1172 2.47933 10.1172 2.87163V13.1499C14.6484 13.1812 17.0312 12.9929 17.0312 12.9929C19.357 12.9333 19.1844 12.4593 20.2148 8.89728H22.2266C21.8823 15.2589 21.9211 12.7782 22.0898 18.9558H20.0781C19.3629 16.4397 19.3699 15.1242 16.9921 15.0956C16.9921 15.0956 15.3124 14.9701 10.1171 14.9701V23.6948C10.1171 25.3268 11.2304 26.0957 13.5741 26.0957H20.5469C25.5184 26.0957 25.7472 24.5267 28.2618 19.8346H30V19.8346Z" fill="#E6A666"/>
</svg>
