<svg width="31" height="29" viewBox="0 0 31 29" fill="none" xmlns="http://www.w3.org/2000/svg">
<path d="M15.9985 6.85008C11.7419 6.85008 8.30856 10.0688 8.30856 14.0594C8.30856 18.0499 11.7419 21.2686 15.9985 21.2686C20.255 21.2686 23.6884 18.0499 23.6884 14.0594C23.6884 10.0688 20.255 6.85008 15.9985 6.85008ZM15.9985 18.7463C13.2478 18.7463 10.999 16.6444 10.999 14.0594C10.999 11.4743 13.2411 9.37239 15.9985 9.37239C18.7559 9.37239 20.9979 11.4743 20.9979 14.0594C20.9979 16.6444 18.7492 18.7463 15.9985 18.7463ZM25.7966 6.55518C25.7966 7.49007 24.9934 8.23672 24.0029 8.23672C23.0057 8.23672 22.2093 7.48379 22.2093 6.55518C22.2093 5.62657 23.0124 4.87364 24.0029 4.87364C24.9934 4.87364 25.7966 5.62657 25.7966 6.55518ZM30.8897 8.26182C30.7759 6.00931 30.2271 4.01405 28.467 2.37015C26.7135 0.726262 24.5852 0.211761 22.1825 0.0988218C19.7062 -0.0329406 12.284 -0.0329406 9.80772 0.0988218C7.41174 0.205487 5.28346 0.719987 3.52328 2.36388C1.7631 4.00777 1.221 6.00303 1.10053 8.25554C0.959981 10.5771 0.959981 17.5354 1.10053 19.8569C1.2143 22.1094 1.7631 24.1047 3.52328 25.7486C5.28346 27.3925 7.40505 27.907 9.80772 28.0199C12.284 28.1517 19.7062 28.1517 22.1825 28.0199C24.5852 27.9132 26.7135 27.3987 28.467 25.7486C30.2204 24.1047 30.7692 22.1094 30.8897 19.8569C31.0303 17.5354 31.0303 10.5833 30.8897 8.26182ZM27.6906 22.3478C27.1686 23.5776 26.158 24.5251 24.8395 25.0207C22.8652 25.7548 18.1803 25.5854 15.9985 25.5854C13.8166 25.5854 9.12507 25.7486 7.15741 25.0207C5.84565 24.5313 4.83505 23.5839 4.30633 22.3478C3.52328 20.4969 3.70399 16.1048 3.70399 14.0594C3.70399 12.0139 3.52998 7.61555 4.30633 5.77088C4.82836 4.5411 5.83895 3.59366 7.15741 3.09799C9.13176 2.36388 13.8166 2.53329 15.9985 2.53329C18.1803 2.53329 22.8719 2.37015 24.8395 3.09799C26.1513 3.58739 27.1619 4.53482 27.6906 5.77088C28.4736 7.62183 28.2929 12.0139 28.2929 14.0594C28.2929 16.1048 28.4736 20.5032 27.6906 22.3478Z" fill="#E6A666"/>
</svg>
